<svg width="1920" height="588" viewBox="0 0 1920 588" fill="none" xmlns="http://www.w3.org/2000/svg">
<path d="M2090.23 495.865C2081.59 460.671 2068.76 426.639 2052.04 394.494C2046.32 383.453 2039.37 371.786 2025.1 364.66C2010.83 357.534 1992.8 356.63 1975.27 357.509C1970 348.425 1964.96 339.267 1959.42 330.133C1954.88 322.606 1950.42 315.078 1946.25 307.4C1944.12 303.461 1942.06 299.471 1940.11 295.482C1938.7 292.621 1937.2 286.022 1934.79 283.989C1940.11 288.438 1946.26 291.797 1952.87 293.876C1938.1 265.547 1925.28 241.634 1918.16 212.126C1921.76 216.718 1926.7 220.083 1932.28 221.762C1925.22 209.999 1920.14 197.157 1917.23 183.748C1917.8 185.603 1918.95 187.228 1920.51 188.388C1922.06 189.547 1923.95 190.181 1925.89 190.196C1913.35 160.086 1900.11 121.219 1899.88 116.928C1901.2 118.175 1902.83 119.042 1904.59 119.437C1900.77 115.742 1897.82 111.23 1895.97 106.239C1898.48 108.522 1899.33 110.53 1902.06 110.53C1894.01 89.0259 1892.68 80.4193 1891.05 67.6476C1892.73 69.2033 1893.23 69.8808 1894.29 69.8808C1889.73 59.9583 1886.36 49.5313 1884.25 38.8171C1885.61 41.1255 1885.81 39.8208 1887.14 41.0252C1883.03 32.6445 1878.09 8.28031 1878.09 0C1876.83 11.6426 1874.22 24.2638 1868.05 34.4511C1869.92 33.2894 1871.48 31.687 1872.59 29.784C1865.77 61.9266 1864.79 88.8 1845.88 112.311L1852.81 110.203C1851.74 116.029 1849.7 121.634 1846.79 126.789L1853.76 123.552C1846.08 145.809 1841.72 155.971 1827.32 175.568C1832.03 173.767 1836.23 170.838 1839.54 167.036L1825.92 192.53C1831.89 192.379 1834.45 190.372 1839.11 186.909C1830.91 211.273 1817.14 243.416 1803.55 264.97C1808.04 264.756 1812.31 262.981 1815.64 259.951C1813.39 266.274 1810.43 272.319 1806.81 277.967C1801.82 266.112 1797.81 253.868 1794.82 241.358C1798.35 246.11 1803.29 249.623 1808.94 251.395C1801.86 239.211 1796.78 225.97 1793.89 212.177C1794.44 214.065 1795.57 215.73 1797.12 216.927C1798.68 218.124 1800.58 218.789 1802.55 218.826C1790.01 187.762 1776.76 147.615 1776.54 143.199C1777.83 144.51 1779.46 145.439 1781.25 145.884C1777.41 142.036 1774.46 137.383 1772.63 132.259C1775.13 134.593 1775.99 136.675 1778.72 136.675C1770.67 114.469 1769.34 105.486 1767.71 92.4133C1769.42 94.0192 1769.89 94.7217 1770.95 94.7217C1766.46 83.1543 1764.1 78.412 1760.91 62.6543C1762.27 65.038 1762.49 63.6831 1763.8 64.9377C1759.68 56.3061 1754.74 31.1641 1754.74 22.5827C1753.49 34.6267 1750.88 47.6745 1744.71 58.1378C1746.61 56.9306 1748.17 55.2761 1749.28 53.3202C1742.43 86.5167 1741.45 114.243 1722.54 138.632L1729.49 136.475C1728.4 142.466 1726.36 148.243 1723.44 153.587L1730.44 150.25C1722.74 173.209 1718.38 183.697 1703.98 203.921C1708.73 202.053 1712.93 199.025 1716.2 195.114L1702.58 221.461C1708.55 221.285 1711.11 219.227 1715.77 215.639C1708.77 236.93 1700.27 257.7 1690.34 277.792C1684.27 257.718 1679.38 238.498 1679.43 235.863C1680.41 236.96 1681.67 237.774 1683.07 238.222C1680.21 235.02 1678.09 231.224 1676.87 227.106C1678.73 229.063 1679.38 230.745 1681.54 230.92C1677.75 219.572 1675.59 207.746 1675.12 195.792C1676.37 197.147 1676.75 197.724 1677.62 197.799C1674.54 189.561 1672.45 180.987 1671.38 172.255C1672.33 174.188 1672.58 173.159 1673.56 174.213C1670.73 167.237 1668.14 147.389 1668.55 140.715C1666.87 149.999 1664.06 159.96 1658.51 167.739C1660.09 166.921 1661.44 165.733 1662.45 164.276C1655.13 189.669 1652.82 211.173 1636.32 228.863L1642.01 227.608C1640.82 232.217 1638.86 236.593 1636.22 240.555L1642.01 238.398C1634.49 255.761 1630.5 263.665 1617.81 278.545C1621.7 277.401 1625.24 275.305 1628.12 272.447C1624 279.005 1619.87 285.553 1615.73 292.094C1620.54 292.345 1622.7 290.89 1626.66 288.38C1619.64 305.059 1611.37 321.181 1601.91 336.607C1595.74 322.681 1590.47 308.805 1590.35 306.923C1591.22 307.63 1592.24 308.121 1593.33 308.354C1590.97 306.387 1589.1 303.895 1587.86 301.077C1589.42 302.332 1590 303.436 1591.73 303.436C1588.17 296.004 1585.82 288.049 1584.78 279.874C1585.83 280.727 1586.16 281.104 1586.81 281.104C1583.97 275.709 1581.86 269.964 1580.52 264.016C1581.39 265.296 1581.52 264.568 1582.35 265.246C1579.23 258.077 1577.3 250.45 1576.63 242.663C1576.06 249.398 1573.86 255.893 1570.21 261.582C1571.36 261 1572.36 260.137 1573.09 259.073C1568.78 276.763 1568.08 291.517 1556.21 304.439L1560.58 303.285C1559.89 306.541 1558.6 309.639 1556.77 312.418L1561.18 310.637C1557.57 321.183 1551.9 330.901 1544.48 339.217C1547.38 338.276 1550.03 336.669 1552.2 334.524L1543.57 348.551C1546.63 348.491 1549.57 347.404 1551.93 345.464C1547.3 357.277 1541.71 368.691 1535.22 379.589C1531.95 373.614 1529.15 367.399 1526.82 360.996C1527.72 361.608 1528.74 362.019 1529.81 362.201C1527.52 360.659 1525.64 358.583 1524.34 356.154C1525.89 357.207 1526.47 358.111 1528.2 358.111C1524.68 352.069 1522.33 345.423 1521.25 338.514C1522.31 339.217 1522.63 339.543 1523.29 339.543C1520.48 335.152 1518.36 330.365 1516.99 325.341C1517.84 326.395 1517.99 325.792 1518.82 326.344C1515.74 320.517 1513.8 314.155 1513.1 307.601C1512.48 313.343 1510.25 318.795 1506.68 323.333C1507.79 322.852 1508.78 322.122 1509.57 321.201C1505.25 335.904 1504.55 348.174 1492.69 358.838L1497.05 357.885C1496.33 360.636 1495.03 363.202 1493.24 365.412L1497.65 363.957C1493.85 372.985 1488.16 381.089 1480.95 387.719C1483.77 386.985 1486.4 385.659 1488.68 383.83C1485.79 387.694 1482.93 391.583 1480.05 395.472C1483.01 395.457 1485.91 394.586 1488.4 392.963C1484.91 400.491 1479.85 407.14 1476.39 414.567C1473.88 419.837 1471.97 427.113 1465.53 428.744L1475.26 426.11C1472.54 429.609 1469.47 432.82 1466.1 435.695C1468.06 435.562 1469.95 434.913 1471.57 433.813C1469.06 437.987 1465.34 441.303 1460.91 443.323C1462.22 441.475 1462.92 439.265 1462.92 436.999L1456.75 444.753C1457.95 442.232 1458.39 439.414 1458 436.648C1456.8 440.407 1454.17 443.542 1450.68 445.38C1451.6 443.43 1452.04 441.289 1451.97 439.134C1451.9 436.979 1451.32 434.871 1450.28 432.985C1449.82 437.556 1448.08 441.905 1445.26 445.531C1445.66 443.448 1445.76 441.319 1445.56 439.208L1440.55 446.735C1439.99 444.455 1439.8 442.099 1440 439.76C1439.01 441.167 1438.17 442.672 1437.49 444.251L1437.81 436.723C1436.22 438.166 1434.99 439.967 1434.23 441.979C1433.47 443.991 1433.21 446.154 1433.45 448.291C1430.94 444.452 1428.03 440.638 1425.93 436.598C1424.67 434.089 1424.07 430.225 1422.26 428.217C1423.32 429.362 1424.75 430.092 1426.3 430.275C1423.92 426.628 1421.99 422.711 1420.53 418.607C1422.02 420.036 1423.97 420.882 1426.03 420.991C1419.37 409.029 1413.96 396.417 1409.88 383.353C1411.45 384.99 1413.6 385.953 1415.87 386.038C1413.78 381.956 1411.71 377.866 1409.67 373.768C1411.15 375.578 1413.06 376.992 1415.22 377.883C1409.75 370.304 1405.68 361.806 1403.2 352.791L1406.39 354.347C1405.04 351.846 1404.11 349.143 1403.63 346.343L1406.79 347.371C1398.19 336.055 1397.74 323.108 1394.65 307.626C1395.15 308.531 1395.85 309.305 1396.71 309.884C1394.05 304.73 1392.48 299.085 1392.09 293.299C1391.63 300.037 1390.24 306.681 1387.98 313.046C1388.58 312.444 1388.68 313.046 1389.31 311.967C1388.37 317.141 1386.85 322.191 1384.77 327.022C1385.25 327.022 1385.47 326.671 1386.25 325.918C1385.5 332.993 1383.81 339.938 1381.23 346.568C1382.49 346.568 1382.89 345.615 1384.02 344.511C1383.19 346.897 1381.84 349.073 1380.08 350.884C1380.9 350.669 1381.65 350.235 1382.24 349.63C1379.01 361.618 1375.06 373.399 1370.4 384.909C1371.3 384.885 1372.18 384.569 1372.89 384.008C1373.6 383.447 1374.1 382.672 1374.34 381.797C1373.02 388.225 1370.7 394.406 1367.47 400.114C1370.04 399.274 1372.28 397.651 1373.89 395.472C1370.63 409.674 1364.83 421.192 1358.11 434.816C1361.14 433.802 1363.94 432.189 1366.34 430.074C1365.23 431.779 1364.39 433.639 1363.83 435.594C1362.93 437.526 1362 439.433 1361.02 441.34C1359.06 445.742 1356.82 450.016 1354.32 454.137C1353.27 455.311 1352.12 456.394 1350.89 457.374C1350.61 457.6 1350.16 457.776 1349.96 457.5C1349.9 457.329 1349.9 457.143 1349.96 456.973C1349.96 455.542 1350.16 454.137 1350.29 452.732C1348.84 453.974 1347.52 455.362 1346.35 456.872C1345.17 458.368 1343.5 459.399 1341.63 459.783C1341.88 457.274 1344.14 454.965 1343.72 452.431C1341.51 455.542 1339.18 458.553 1336.69 461.414C1336.37 461.79 1335.84 462.192 1335.46 461.891C1336 459.088 1336.24 456.237 1336.17 453.384C1334.91 456.45 1333 459.207 1330.57 461.464C1330.91 459.796 1330.82 458.071 1330.32 456.446L1326.59 462.869C1326.26 463.421 1325.61 464.074 1325.11 463.672C1324.98 463.533 1324.88 463.365 1324.83 463.181C1324.78 462.998 1324.77 462.805 1324.81 462.618C1324.95 459.959 1325.43 457.329 1326.23 454.79C1324.68 458.148 1322.86 461.378 1320.79 464.45C1320.54 464.826 1320.22 465.228 1319.79 465.228C1319.36 465.228 1318.86 464.55 1318.71 463.948C1318.06 460.865 1317.8 457.712 1317.93 454.564C1316.63 457.934 1315.65 461.421 1315 464.977C1312.55 461.333 1311.09 457.113 1310.76 452.732C1310.23 457.173 1309.68 461.64 1309.16 466.081C1308.21 462.609 1307.67 459.039 1307.55 455.442C1306.43 459.624 1305.19 463.806 1303.84 467.988C1303.16 468.164 1302.84 467.135 1302.84 466.407V460.26L1298.55 468.239C1298.22 464.888 1298.38 461.507 1299.02 458.202C1296.25 461.086 1294.72 464.941 1294.76 468.941C1293.16 465.955 1291.52 462.995 1289.89 460.009C1290.44 463.54 1290.15 467.15 1289.04 470.547C1288.87 471.074 1288.57 471.676 1288.04 471.777C1287.51 471.877 1286.83 470.823 1286.78 469.995C1286.66 468.124 1286.88 466.247 1287.41 464.45C1284.26 466.631 1281.74 469.598 1280.09 473.056C1279.97 470.379 1280.59 467.721 1281.89 465.378C1278.81 467.685 1276.25 470.629 1274.4 474.01C1274.05 471.077 1274.14 468.108 1274.67 465.203C1271.89 467.433 1269.62 470.241 1268.03 473.433C1266.9 470.85 1266.09 468.136 1265.64 465.353C1265.12 468.792 1263.66 472.02 1261.43 474.687C1260.48 471.56 1260.6 468.207 1261.76 465.152C1259.47 467.232 1257.61 469.738 1256.29 472.53C1256.31 470.407 1256.57 468.294 1257.07 466.231C1254.52 468.884 1252.57 472.049 1251.35 475.515C1250.57 473.277 1250.37 470.876 1250.77 468.54C1249.54 470.66 1248.56 472.917 1247.86 475.264L1245.6 467.887C1245.65 469.201 1245.41 470.509 1244.91 471.722C1244.4 472.935 1243.64 474.023 1242.67 474.913C1242.9 473.248 1242.9 471.559 1242.67 469.895L1237.83 477.874C1237.25 477.874 1237.15 476.971 1237.2 476.369L1237.9 469.744C1236.03 472.161 1234.48 474.809 1233.29 477.623C1232.56 477.422 1232.36 476.444 1232.31 475.666C1232.17 473.72 1232.17 471.766 1232.31 469.82C1230.61 472.124 1229.24 474.659 1228.25 477.347L1224.39 468.69C1224.21 472.047 1223.36 475.334 1221.88 478.351C1221.13 478.351 1220.8 477.372 1220.73 476.594C1220.52 474.602 1220.42 472.6 1220.42 470.597L1213.18 478.777C1213.98 476.469 1214.68 474.11 1215.28 471.727C1212.56 474.113 1210.2 476.876 1208.26 479.932C1208.39 477.27 1208.87 474.637 1209.69 472.103C1207.09 474.477 1205.16 477.486 1204.07 480.835C1203.53 477.329 1202.57 473.901 1201.21 470.622C1201.01 472.811 1200.46 474.953 1199.58 476.971C1198.72 478.975 1197.14 480.58 1195.14 481.462C1195.54 479.425 1196.08 477.421 1196.77 475.465L1190.18 481.287C1190.21 478.913 1191.1 476.632 1192.69 474.863C1190.43 476.174 1188.38 477.805 1186.59 479.706C1187.11 478.258 1187.34 476.724 1187.27 475.189C1187.27 474.411 1187.09 473.659 1186.97 472.881L1178.69 483.595C1178.69 481.337 1178.69 479.078 1178.69 476.82C1177.09 478.902 1175.9 481.269 1175.18 483.796C1174.4 483.796 1174.38 482.566 1174.63 481.788C1175.46 479.129 1176.28 476.469 1177.14 473.809C1174.37 476.366 1172.32 479.613 1171.22 483.219C1170.19 481.072 1169.51 478.777 1169.19 476.419C1168.74 478.627 1168.26 480.835 1167.78 483.043C1166.94 480.307 1165.85 477.653 1164.52 475.114C1164.47 478.292 1163.45 481.38 1161.61 483.971C1161.24 484.498 1160.46 485 1160.06 484.498C1160.36 483.118 1160.63 481.713 1160.94 480.308C1157.91 482.757 1154.42 484.559 1150.68 485.602C1153.26 483.839 1155.06 481.14 1155.69 478.075C1152.73 480.985 1149.42 483.514 1145.84 485.602C1147.38 483.566 1148.09 481.017 1147.82 478.476C1145.48 481.496 1142.79 484.233 1139.82 486.631C1139.62 484.668 1140.14 482.698 1141.27 481.086C1139.45 482.478 1137.88 484.176 1136.63 486.104C1136.94 483.566 1137.6 481.084 1138.59 478.727C1136.01 480.882 1133.69 483.323 1131.67 486.004C1131.57 483.027 1132.45 480.101 1134.18 477.673C1131.4 479.861 1129.09 482.583 1127.38 485.678C1127.28 482.765 1127.97 479.88 1129.36 477.322C1126.15 479.304 1125 483.52 1122.56 486.481C1122.24 485.089 1122.25 483.639 1122.59 482.252C1122.94 480.865 1123.61 479.58 1124.55 478.501C1122.21 480.005 1120.21 481.989 1118.7 484.323C1118.44 482.483 1118.06 480.664 1117.55 478.878L1113.11 486.179C1112.63 486.982 1111.73 487.911 1110.95 487.434C1110.74 487.262 1110.57 487.043 1110.45 486.796C1110.33 486.548 1110.27 486.278 1110.27 486.004C1110.12 485.151 1109.97 484.298 1109.85 483.495C1109.35 484.9 1108.82 486.305 1108.22 487.66C1107.02 485.539 1106.72 483.031 1107.37 480.684C1104.93 482.593 1103.06 485.137 1101.97 488.036C1101.24 486.353 1100.89 484.527 1100.95 482.692C1100.14 484.574 1099.37 486.455 1098.56 488.362C1097.31 487.334 1097.41 485.377 1097.61 483.746C1097.76 482.642 1097.91 481.563 1098.04 480.484C1095.05 482.14 1093.57 485.678 1092.34 488.965C1091.87 486.93 1091.96 484.807 1092.59 482.817C1090.86 484.561 1089.5 486.645 1088.61 488.94C1088.2 486.411 1088.44 483.821 1089.31 481.412C1086.97 483.681 1085.47 486.682 1085.07 489.918C1084.54 487.154 1083.48 484.52 1081.93 482.165C1082.01 485.108 1080.96 487.969 1079 490.169C1078.77 490.445 1078.42 490.696 1078.1 490.545C1077.77 490.395 1077.85 489.768 1078.1 489.366C1078.6 488.237 1079.1 487.083 1079.58 485.954L1074.71 490.269C1074.95 488.749 1075.45 487.28 1076.19 485.929C1074.23 487.311 1072.4 488.873 1070.72 490.596C1071 488.381 1071.94 486.301 1073.41 484.624C1071.5 485.723 1069.73 487.046 1068.14 488.563C1068.14 487.108 1068.14 485.653 1068.14 484.222L1061.27 489.868C1060.92 490.169 1060.32 490.42 1060.09 490.044C1059.86 489.667 1060.09 489.391 1060.27 489.14L1063.5 484.122C1060.57 485.459 1058 487.461 1055.98 489.968C1055.93 488.351 1056.37 486.758 1057.26 485.402C1055.78 486.954 1054.45 488.633 1053.27 490.42C1053.39 487.976 1053.17 485.527 1052.62 483.143C1051.62 485.669 1050.06 487.934 1048.05 489.768C1047.92 489.921 1047.76 490.046 1047.58 490.137C1047.4 490.227 1047.2 490.281 1047 490.294C1047.94 488.494 1048.55 486.539 1048.8 484.523C1046.19 486.132 1043.92 488.238 1042.11 490.721C1042.49 488.558 1043.25 486.479 1044.34 484.574C1042.65 485.619 1041.08 486.838 1039.65 488.212C1040.04 486.782 1040.21 485.302 1040.15 483.821C1038.59 486.912 1036.27 489.555 1033.41 491.499C1033.08 491.725 1032.63 491.951 1032.33 491.7C1032.91 490.211 1033.38 488.685 1033.76 487.133C1031.84 488.253 1030.1 489.648 1028.59 491.273C1028.11 491.775 1027.54 492.352 1026.86 492.302C1027.19 490.324 1028.06 488.474 1029.37 486.957C1027.57 487.847 1026.02 489.155 1024.83 490.771C1024.43 491.298 1024 491.9 1023.37 491.951C1023.22 489.783 1023.76 487.623 1024.9 485.778C1022.86 487.556 1021.17 489.69 1019.89 492.076C1019.89 489.692 1019.71 487.309 1019.64 484.925C1018.93 487.278 1017.93 489.536 1016.68 491.649C1016.57 489.129 1016.33 486.616 1015.95 484.122C1014.32 487.009 1012.21 489.597 1009.71 491.775C1009.51 491.951 1009.23 492.151 1008.98 492.051C1008.73 491.951 1008.65 491.248 1008.83 490.796C1009.35 489.517 1009.88 488.287 1010.38 486.957C1008.38 487.685 1007.22 489.843 1005.72 491.399C1005.52 491.599 1005.19 491.8 1004.99 491.599C1005.61 489.789 1006.35 488.02 1007.2 486.305C1004.91 487.921 1002.91 489.905 1001.28 492.176C1001.52 489.421 1002.58 486.801 1004.31 484.649C1002.04 486.233 1000.07 488.224 998.52 490.52C998.465 488.777 998.272 487.04 997.943 485.326L993.053 491.675C992.877 491.9 992.627 492.151 992.351 492.051C992.075 491.951 992.05 491.7 992 491.449L991.448 488.588C990.743 490.147 989.903 491.641 988.94 493.055C988.94 491.047 988.739 489.015 988.664 486.982C987.542 489.858 985.436 492.241 982.72 493.707C982.448 491.155 983.011 488.584 984.325 486.38C982.004 487.661 980.223 489.737 979.309 492.227C979.109 492.779 978.783 493.481 978.231 493.456C978.082 491.247 978.551 489.04 979.585 487.083C976.62 488.67 974.291 491.231 972.989 494.334C972.618 494.038 972.326 493.653 972.142 493.214C971.958 492.776 971.887 492.298 971.936 491.825C972.047 490.879 972.327 489.961 972.764 489.115C971.183 490.053 969.984 491.519 969.378 493.255C969.378 493.582 969.102 493.983 968.776 493.958C968.45 493.933 968.299 493.28 968.4 492.854C968.726 491.474 969.077 490.094 969.403 488.714C967.246 489.818 966.895 492.829 965.265 494.686C965.222 491.876 964.589 489.106 963.409 486.556C962.939 489.621 961.598 492.486 959.547 494.811C959.317 493.235 959.645 491.629 960.475 490.269C958.469 491.283 956.874 492.958 955.96 495.012C955.891 492.4 956.694 489.839 958.243 487.735C956.648 489.004 955.155 490.397 953.778 491.9C953.503 492.201 953.252 492.528 952.976 492.854C952.72 491.161 952.359 489.485 951.897 487.836C950.599 490.054 949.051 492.117 947.283 493.983C946.982 494.309 946.555 494.66 946.129 494.535C945.934 494.449 945.775 494.298 945.678 494.108C945.194 493.135 945.096 492.015 945.402 490.972C945.527 490.295 945.653 489.592 945.753 488.914C943.752 490.623 942.056 492.66 940.737 494.936C940.515 492.846 940.88 490.734 941.79 488.839C939.845 490.441 938.328 492.502 937.376 494.836C937.025 494.836 936.9 494.384 936.875 494.033C936.84 492.424 937.078 490.821 937.577 489.291C935.691 490.71 934.254 492.645 933.439 494.861C933.121 494.392 932.899 493.864 932.787 493.309C932.675 492.753 932.675 492.18 932.787 491.624C933.045 490.525 933.441 489.463 933.966 488.463C932.753 489.06 931.761 490.026 931.132 491.223C930.489 492.419 929.976 493.681 929.602 494.987L926.893 488.664C926.944 490.587 926.54 492.496 925.714 494.234C925.539 494.535 925.188 494.836 924.937 494.635C924.876 494.573 924.829 494.498 924.799 494.416C924.768 494.334 924.756 494.246 924.761 494.159C924.983 492.373 924.786 490.56 924.184 488.864C922.834 490.717 921.342 492.462 919.72 494.083L920.498 490.119L915.683 495.137C915.586 492.874 916.219 490.64 917.488 488.764C915.892 490.06 914.422 491.505 913.099 493.08C912.6 491.565 911.953 490.102 911.168 488.714C909.688 490.37 908.184 492.001 906.654 493.582C906.386 493.917 906.042 494.183 905.651 494.359C905.452 494.437 905.232 494.442 905.03 494.373C904.828 494.304 904.657 494.166 904.547 493.983C904.446 493.682 904.446 493.356 904.547 493.055C904.773 491.75 905.024 490.545 905.25 489.165C903.354 490.433 901.81 492.159 900.76 494.184C900.725 494.298 900.666 494.403 900.589 494.494C900.511 494.584 900.416 494.658 900.309 494.711C899.757 494.911 899.481 494.008 899.581 493.381C899.83 491.851 900.357 490.38 901.136 489.04C898.917 490.304 897.06 492.119 895.744 494.309C895.444 492.263 895.669 490.173 896.396 488.237C893.838 489.898 891.94 492.401 891.029 495.313C890.434 494.383 890.066 493.326 889.957 492.227C889.849 491.128 890.001 490.018 890.402 488.99C888.728 490.742 887.528 492.892 886.916 495.238C886.39 495.238 886.064 494.635 885.988 494.083C885.632 491.858 885.919 489.577 886.816 487.509C884.706 489.376 883.204 491.832 882.502 494.56C881.804 491.916 880.741 489.382 879.342 487.033C879.649 489.542 879.285 492.087 878.289 494.41C878.18 494.632 878.016 494.822 877.812 494.962C877.311 495.238 876.684 494.786 876.508 494.209C876.37 493.632 876.37 493.03 876.508 492.452C876.565 492.165 876.561 491.87 876.497 491.584C876.432 491.299 876.308 491.03 876.132 490.796C875.054 492.452 873.9 494.033 872.696 495.589C872.652 493.8 873.012 492.025 873.75 490.395C871.538 491.812 869.664 493.696 868.257 495.915C868.01 493.036 868.912 490.177 870.765 487.961C868.913 489.324 867.266 490.947 865.875 492.779C865.649 491.348 865.398 489.918 865.047 488.513C864.395 489.717 863.718 491.022 863.041 492.126C862.866 492.536 862.556 492.873 862.163 493.08C861.335 493.381 860.583 492.377 860.482 491.474C860.516 490.567 860.406 489.661 860.156 488.789C859.098 490.636 858.353 492.645 857.949 494.736C856.821 494.159 856.896 492.452 857.147 491.148L857.949 487.007C855.216 487.986 854.062 491.298 853.234 494.184C852.473 491.215 852.516 488.097 853.36 485.151C852.136 486.284 851.182 487.676 850.566 489.226C849.95 490.776 849.687 492.444 849.799 494.108C848.603 491.388 847.024 488.853 845.109 486.581C845.53 489.514 844.851 492.5 843.203 494.962C842.623 493.408 842.375 491.749 842.475 490.094C840.511 491.173 838.848 492.725 837.635 494.61C837.106 492.956 837.223 491.164 837.961 489.592C835.496 490.44 833.351 492.025 831.816 494.134C831.421 493 831.317 491.786 831.515 490.602C831.712 489.418 832.204 488.303 832.945 487.359C831.339 487.823 829.912 488.765 828.855 490.06C827.797 491.356 827.16 492.943 827.026 494.61L822.261 487.635C822.703 489.449 822.797 491.331 822.537 493.18C821.559 490.997 820.506 488.864 819.327 486.782C819.358 488.931 818.85 491.053 817.847 492.954C817.745 490.114 817.324 487.295 816.593 484.549C815.671 487.9 813.58 490.81 810.7 492.754L813.533 488.588C811.195 489.823 808.964 491.249 806.862 492.854L810.248 488.312C808.278 489.407 806.443 490.729 804.781 492.252V492.076C805.241 490.788 805.319 489.393 805.006 488.061C802.022 489.165 799.991 492.227 797.031 493.381C796.68 493.531 796.153 493.582 796.028 493.205C795.954 493.02 795.954 492.813 796.028 492.628C796.712 490.643 797.748 488.799 799.088 487.183C795.917 488.525 792.933 490.27 790.21 492.377C790.722 490.182 791.725 488.131 793.144 486.38C789.717 487.936 786.593 490.085 783.915 492.728C784.724 490.211 784.956 487.544 784.592 484.925C782.906 487.876 780.52 490.366 777.645 492.176C778.116 490.383 778.972 488.713 780.153 487.284C777.346 488.324 774.703 489.76 772.303 491.549L775.362 485.728C772.39 487.33 769.525 489.123 766.785 491.097C767.719 490.03 768.362 488.739 768.652 487.35C768.942 485.961 768.869 484.521 768.44 483.168C766.898 486.556 764.141 489.242 760.716 490.696C761.317 488.326 762.63 486.198 764.478 484.599C761.554 485.779 758.968 487.667 756.954 490.094C757.28 488.058 758.257 486.183 759.738 484.749C756.992 486.28 754.461 488.17 752.214 490.37C752.167 489.135 752.403 487.905 752.903 486.774C753.402 485.644 754.153 484.642 755.098 483.846C752.684 485.29 750.51 487.102 748.653 489.216C748.903 487.233 748.903 485.226 748.653 483.244C747.082 485.198 745.16 486.841 742.985 488.086L744.339 484.147C742.081 485.269 740.082 486.85 738.47 488.789C738.752 486.491 739.568 484.291 740.853 482.365C737.638 483.687 734.98 486.081 733.329 489.14H733.128L732.677 481.161C731.897 482.915 730.663 484.429 729.102 485.545C727.541 486.661 725.71 487.339 723.799 487.509C725.737 485.06 727.023 482.16 727.536 479.078L719.485 483.846C718.607 484.373 717.529 484.9 716.651 484.373C717.328 483.037 718.286 481.864 719.46 480.935C715.716 482.288 712.049 483.846 708.475 485.602C709.552 483.499 710.883 481.535 712.438 479.756C709.825 480.911 707.497 482.624 705.616 484.774C706.528 482.375 706.771 479.773 706.318 477.247C705.684 479.021 704.647 480.624 703.29 481.93C701.932 483.236 700.291 484.21 698.494 484.774C699.754 483.153 700.854 481.414 701.779 479.58C699.419 481.587 696.589 482.959 693.553 483.57C695.787 481.924 697.523 479.692 698.569 477.121C696.065 479.401 693.284 481.357 690.293 482.943C691.148 480.776 691.795 478.533 692.224 476.243C691.588 477.429 690.676 478.445 689.565 479.204L684.549 483.219C684.454 482.136 684.673 481.048 685.18 480.087C685.687 479.125 686.461 478.331 687.409 477.799C685.243 478.721 683.224 479.956 681.414 481.462C681.778 480.423 681.856 479.305 681.64 478.225C680.602 479.593 679.339 480.772 677.903 481.713C677.835 479.299 678.453 476.915 679.684 474.838C677.295 476.141 675.263 478.011 673.765 480.283C673.489 480.735 672.938 481.261 672.511 480.935C672.085 480.609 672.285 480.283 672.361 479.907C672.788 477.712 673.418 475.561 674.242 473.483C671.132 474.361 669.602 478.326 666.567 479.38C666.785 476.469 667.641 473.641 669.075 471.099C666.001 473.119 663.503 475.903 661.827 479.179C661.733 476.566 661.093 474.001 659.946 471.651C659.34 474.52 657.89 477.141 655.783 479.179C655.095 475.08 655.991 470.872 658.291 467.411C656.185 468.367 654.319 469.782 652.83 471.554C651.341 473.325 650.268 475.408 649.689 477.648C648.886 477.071 648.987 475.842 649.162 474.863C649.463 473.383 649.739 471.902 650.015 470.422C647.7 472.005 645.896 474.228 644.823 476.82C644.394 474.471 644.276 472.075 644.472 469.694C643.046 471.969 641.158 473.918 638.93 475.415C638.654 475.591 638.253 475.766 638.027 475.415C637.936 475.292 637.892 475.141 637.901 474.989C637.957 474.196 638.226 473.433 638.679 472.78L641.412 468.138L633.387 474.16C632.735 474.637 631.807 475.114 631.23 474.537C632.125 473.782 632.844 472.84 633.338 471.779C633.832 470.717 634.088 469.56 634.089 468.389C632.384 470.987 629.925 473.001 627.042 474.16C626.591 474.336 625.964 474.411 625.763 473.96C625.664 473.701 625.664 473.415 625.763 473.157C626.443 471.625 627.283 470.17 628.271 468.816C625.747 470.164 623.52 472.007 621.725 474.236H621.374C621.088 471.522 621.724 468.79 623.18 466.482C621.334 468.087 619.811 470.029 618.69 472.203C616.183 466.031 625.487 447.337 627.067 442.093C627.995 439.057 628.848 435.444 627.067 432.909C625.587 430.852 622.904 430.4 620.672 429.171C618.288 427.722 616.334 425.662 615.012 423.206C613.689 420.749 613.046 417.983 613.148 415.195C613.372 409.528 615.461 404.094 619.092 399.738C620.897 402.262 623.411 404.192 626.315 405.283C626.996 403.036 627.089 400.651 626.584 398.357C626.079 396.063 624.993 393.938 623.43 392.185C622.895 391.771 622.422 391.28 622.026 390.73C621.681 390.047 621.461 389.308 621.374 388.547C620.287 382.548 616.893 377.215 611.919 373.693C603.768 367.445 593.134 366.391 583.128 364.81C576.202 364.06 569.354 362.708 562.663 360.77C549.446 356.304 536.003 355.627 527.551 353.243C526.002 352.908 524.54 352.25 523.263 351.311C522.265 350.435 521.417 349.401 520.755 348.25C519.159 345.864 517.933 343.249 517.118 340.496C515.814 335.478 516.14 327.273 518.949 322.781C520.203 320.749 520.955 320.925 523.363 320.724C524.759 320.451 526.059 319.816 527.133 318.882C528.207 317.949 529.017 316.749 529.482 315.404C530.636 312.745 531.088 309.809 532.141 307.124C526.423 305.694 521.056 312.393 515.463 312.142C517.329 309.21 520.053 306.924 523.263 305.594C532.768 301.83 544.63 299.873 553.81 295.306C558.959 292.615 563.18 288.436 565.923 283.312C566.905 283.12 567.876 282.877 568.832 282.584C572.848 281.168 576.42 278.719 579.19 275.483C582.074 272.322 586.965 266.024 586.714 264.995C586.463 263.966 576.381 277.792 567.904 279.498C573.146 267.78 573.146 254.858 571.867 255.234C571.19 255.435 569.484 262.31 568.857 266.049C567.297 275.026 562.418 283.088 555.189 288.631C554.261 289.334 553.308 289.961 552.33 290.564C555.707 286.135 557.845 280.886 558.525 275.358C559.578 267.83 556.894 252.374 556.017 252.775C555.139 253.177 555.54 260.303 555.565 266.124C551.778 261.382 549.145 251.32 548.443 251.546C547.74 251.771 547.891 255.008 548.242 256.715C548.478 257.638 548.78 258.544 549.145 259.425C550.852 263.33 552.989 267.033 555.515 270.465C555.503 272.806 555.277 275.141 554.838 277.44C554.168 280.158 553.218 282.798 552.004 285.319C550.488 288.584 548.32 291.505 545.634 293.901C540.88 295.689 535.955 296.984 530.937 297.765C533.445 293.901 535.025 289.409 533.445 286.8C532.743 285.721 532.943 292.37 525.771 298.718C523.911 299.088 522.096 299.651 520.354 300.399C516.215 302.529 512.744 305.759 510.322 309.734C509.285 308.762 508.188 307.857 507.036 307.024C505.173 305.911 503.08 305.242 500.917 305.067C501.184 302.096 500.946 299.101 500.215 296.209C499.76 294.585 499.138 293.013 498.359 291.517C498.108 282.082 501.895 277.089 500.867 277.491C498.559 278.419 496.829 282.81 496.051 287.527C493.809 283.637 491.952 279.535 490.509 275.283C490.434 271.684 490.916 268.095 491.938 264.644C492.704 261.958 493.668 259.333 494.823 256.79C495.864 254.785 497.046 252.857 498.359 251.019C501.688 249.939 504.865 248.439 507.814 246.552C508.518 246.111 509.181 245.608 509.795 245.047C510.949 243.968 512.83 241.634 512.579 240.957C512.328 240.279 505.381 246.377 500.741 247.656C503.977 243.19 508.265 237.62 507.939 237.118C507.613 236.616 497.707 246.477 494.02 252.976C491.275 257.784 489.511 263.088 488.829 268.583C488.653 267.504 488.503 266.425 488.402 265.296C487.706 256.284 489.585 247.26 493.819 239.276C495.634 236.031 497.113 232.609 498.233 229.063C497.782 227.984 490.584 237.519 486.471 249.513C483.487 242.412 485.744 226.63 485.042 227.182C484.339 227.734 483.336 235.688 483.085 239.928C482.744 243.996 483.257 248.09 484.59 251.947C484.799 252.461 485.033 252.963 485.292 253.453C483.535 259.306 483.25 265.504 484.465 271.494C486.747 280.778 491.989 289.786 494.772 298.693C495.4 300.696 495.672 302.794 495.575 304.891H494.797C493.883 304.943 492.973 304.743 492.164 304.314C491.543 303.821 491.009 303.227 490.584 302.557C489.406 301.011 487.924 299.724 486.228 298.774C484.533 297.825 482.661 297.233 480.728 297.037C480.759 302.869 482.846 308.502 486.621 312.945C487.235 313.539 487.714 314.258 488.026 315.053C488.256 316.196 488.116 317.383 487.625 318.441C485.861 324.32 483.499 330.004 480.577 335.403C479.862 336.382 479.421 337.533 479.298 338.74C479.343 339.499 479.603 340.23 480.047 340.848C480.491 341.465 481.101 341.944 481.806 342.228C483.191 342.753 484.701 342.858 486.145 342.529C486.792 342.362 487.464 342.32 488.126 342.403C489.756 342.754 490.634 344.661 490.935 346.343C492.888 353.535 494.099 360.909 494.547 368.348C494.559 372.995 495.148 377.622 496.302 382.124C498.81 390.103 505.607 395.447 510.873 401.495L511.099 401.77C511.099 403.376 510.848 404.982 510.648 406.538C510.636 406.772 510.636 407.007 510.648 407.241C509.519 414.848 507.97 422.387 506.008 429.823C504.829 434.34 503.5 438.806 502.096 443.272C500.601 448.347 497.879 452.975 494.17 456.747C494.597 454.388 495.048 452.029 495.475 449.671C493.591 451.982 491.492 454.107 489.205 456.019C489.86 453.025 491.004 450.16 492.59 447.538C489.858 449.72 487.338 452.156 485.067 454.815C486.635 452.124 487.319 449.008 487.023 445.907C485.227 449.637 482.464 452.817 479.022 455.116C481.388 452.802 482.937 449.781 483.436 446.509C481.17 450.544 477.502 453.607 473.129 455.116C475.906 452.892 477.872 449.814 478.721 446.359C477.021 449.224 474.47 451.487 471.423 452.832C473.195 450.44 474.129 447.53 474.082 444.552C471.574 448.542 467.962 453.083 463.473 452.08C464.696 449.204 466.226 446.47 468.038 443.925C464.398 445.564 461.018 447.728 458.006 450.348C459.481 447.224 461.522 444.399 464.025 442.018C460.587 443.405 457.638 445.78 455.548 448.843L454.745 440.01C454.252 442.91 452.685 445.517 450.356 447.312C450.847 445.303 451.697 443.399 452.864 441.692C450.064 442.944 447.515 444.696 445.341 446.861C447.057 444.623 448.6 442.258 449.955 439.785C446.621 441.033 443.685 443.157 441.453 445.932C442.708 443.093 443.781 440.176 444.663 437.2C441.779 438.953 439.408 441.438 437.792 444.402C436.989 441.318 435.915 438.312 434.581 435.419C434.517 438.577 433.655 441.667 432.073 444.402C431.407 440.035 431.936 435.569 433.603 431.479C429.641 433.988 427.634 438.655 425.879 443.097C425.143 439.801 425.041 436.394 425.578 433.06C423.605 435.474 422.092 438.229 421.114 441.19C418.982 438.296 417.943 434.74 418.179 431.153C417.027 433.743 416.372 436.526 416.248 439.358C414.86 436.945 414.396 434.109 414.944 431.379C413.938 433.693 413.287 436.147 413.013 438.656C412.008 437.393 411.29 435.926 410.909 434.357C410.528 432.789 410.493 431.156 410.806 429.572C409.262 431.51 408.12 433.737 407.445 436.121C405.163 434.49 403.232 432.031 401.125 430.174C398.617 427.991 398.617 426.36 398.768 422.948C398.768 421.468 398.918 419.962 399.019 418.457C400.473 420.966 403.307 425.984 405.038 425.984C406.191 425.984 406.994 424.654 407.019 423.475C406.927 422.281 406.734 421.098 406.442 419.937C406.375 418.421 406.626 416.907 407.179 415.494C407.731 414.081 408.574 412.799 409.652 411.732C411.659 409.499 414.066 407.692 415.897 405.308C420.537 399.261 420.537 391.132 421.891 383.905C424.067 374.558 427.368 365.509 431.722 356.957C434.996 349.743 435.875 341.671 434.23 333.922C433.503 330.434 432.274 327.072 431.497 323.609C430.792 320.114 430.315 316.577 430.067 313.021C429.44 306.045 429.189 298.718 428.537 291.517C428.828 290.043 429.196 288.586 429.641 287.151C430.359 285.191 430.954 283.188 431.421 281.154C431.848 278.427 431.848 275.651 431.421 272.924C431.106 270.108 430.604 267.317 429.917 264.568C432.617 263.86 435.121 262.547 437.24 260.729C438.865 259.445 440.179 257.81 441.082 255.946C441.985 254.081 442.455 252.037 442.456 249.965C438.293 253.428 432.55 253.653 427.409 255.259C427.802 251.251 429.412 247.46 432.023 244.394C439.547 235.763 450.231 227.708 457.103 218.5C460.853 213.209 462.979 206.94 463.222 200.459C464.104 199.777 464.942 199.039 465.73 198.251C468.992 194.782 471.321 190.544 472.502 185.931C473.831 181.339 475.612 172.657 474.784 171.804C473.956 170.951 470.746 189.694 463.272 195.766C462.821 181.539 456.651 168.868 455.598 169.897C455.046 170.474 456.626 178.077 457.78 182.066C460.547 191.809 459.608 202.232 455.147 211.323C454.584 212.479 453.956 213.602 453.266 214.686C454.479 208.642 454.081 202.386 452.112 196.544C449.604 188.565 439.572 174.89 438.87 175.593C438.168 176.295 442.03 183.246 444.814 188.916C438.845 186.207 431.446 177.726 430.87 178.328C430.293 178.93 431.973 181.991 433.152 183.472C433.815 184.269 434.545 185.007 435.334 185.68C438.862 188.62 442.716 191.146 446.82 193.207C447.935 195.511 448.834 197.913 449.504 200.383C450.134 203.404 450.453 206.481 450.457 209.567C450.533 213.587 449.8 217.58 448.3 221.31C444.505 225.503 440.305 229.311 435.76 232.677C436.513 227.658 435.76 222.389 432.926 220.683C431.722 219.98 435.108 226.404 431.07 236.34C429.467 237.62 428.004 239.066 426.706 240.656C424.006 244.27 422.232 248.492 421.54 252.951C417.765 251.532 413.603 251.532 409.828 252.951H409.552C408.771 248.473 406.912 244.253 404.135 240.656C402.805 239.016 401.3 237.526 399.646 236.215C395.608 226.178 398.994 219.855 397.79 220.557C394.906 222.263 394.203 227.432 394.931 232.551C390.391 229.18 386.191 225.373 382.391 221.185C380.896 217.453 380.155 213.462 380.209 209.442C380.234 206.356 380.562 203.28 381.187 200.258C381.857 197.788 382.755 195.385 383.871 193.082C387.971 191.014 391.825 188.489 395.357 185.554C396.146 184.882 396.876 184.143 397.539 183.346C398.718 181.866 400.423 178.829 399.796 178.202C399.169 177.575 391.846 186.081 385.877 188.791C388.661 183.12 392.372 176.044 391.796 175.467C391.219 174.89 381.187 188.44 378.579 196.419C376.615 202.261 376.209 208.514 377.4 214.56C376.748 213.481 376.096 212.352 375.519 211.198C371.099 202.091 370.206 191.668 373.011 181.941C374.165 177.951 375.745 170.348 375.193 169.771C374.115 168.743 367.97 181.414 367.519 195.641C359.995 189.569 356.785 170.85 356.007 171.678C355.23 172.506 356.96 181.213 358.289 185.805C359.47 190.418 361.799 194.657 365.061 198.125C365.838 198.926 366.676 199.664 367.569 200.333C367.812 206.814 369.938 213.084 373.688 218.374C380.535 227.583 391.244 235.637 398.768 244.269C400.91 246.723 402.363 249.702 402.981 252.901C400.95 252.349 398.868 252.022 396.837 251.445C395.307 251.167 393.849 250.579 392.555 249.715C391.261 248.852 390.158 247.733 389.313 246.427C389.019 248.859 389.268 251.327 390.039 253.652C390.811 255.977 392.088 258.103 393.777 259.876C395.476 261.681 397.491 263.161 399.721 264.242C399.451 265.66 399.266 267.093 399.169 268.533C398.369 278.297 396.485 287.941 393.551 297.288C393.02 299.305 392.289 301.263 391.369 303.134C386.88 311.515 376.322 313.974 368.171 316.835L347.806 324.086C338.15 327.524 327.742 331.614 322.3 340.521C320.018 344.26 318.563 348.877 314.952 351.21C316.671 352.18 318.625 352.658 320.597 352.592C322.57 352.526 324.487 351.917 326.137 350.834C324.708 351.788 327.818 361.523 328.119 363.029C329.1 367.134 329.421 371.369 329.072 375.575C328.618 378.537 327.614 381.388 326.112 383.98C323.64 388.504 320.289 392.488 316.256 395.698C314.482 396.758 313.093 398.359 312.294 400.265C312.076 401.279 312.033 402.323 312.168 403.351C312.469 407.14 312.895 410.879 313.472 414.718C313.905 416.225 314.042 417.801 313.874 419.36C313.547 420.815 311.366 423.801 311.366 420.564C311.366 419.711 311.742 418.833 311.366 418.055L308.858 423.073V414.969C308.673 416.549 308.106 418.061 307.206 419.372C306.306 420.684 305.099 421.756 303.691 422.496C304.985 420.329 305.564 417.81 305.346 415.295C304.721 418.016 303.091 420.401 300.782 421.969C302.295 419.372 302.787 416.304 302.161 413.363C300.008 416.411 297.374 419.089 294.362 421.292C295.189 418.783 295.967 416.148 296.694 413.564C293.852 415.624 291.398 418.173 289.446 421.091C289.246 418.102 289.543 415.101 290.324 412.209C287.285 414.584 284.988 417.779 283.703 421.417C282.123 418.682 280.442 415.972 278.888 413.288C280.066 413.288 281.27 413.288 282.474 413.062C272.091 401.52 248.566 365.036 243.776 354.598C245.327 356.053 247.325 356.937 249.444 357.107C246.133 352.763 243.402 348.005 241.318 342.955C243.515 344.729 246.223 345.749 249.043 345.866C239.832 331.556 232.26 316.254 226.471 300.249C228.795 302.304 231.772 303.469 234.873 303.536L226.321 288.33C228.475 290.6 231.141 292.32 234.095 293.349C224.916 281.907 222.133 275.96 217.242 262.962L221.681 264.844C219.838 261.869 218.539 258.589 217.844 255.159L222.258 256.388C210.195 242.663 209.568 226.956 205.229 208.187C205.95 209.316 206.941 210.248 208.113 210.897C204.429 204.798 202.214 197.926 201.643 190.823C200.974 199.07 199.028 207.163 195.874 214.811C196.727 214.084 196.852 214.811 197.73 213.506C196.39 219.798 194.258 225.894 191.385 231.648C192.037 231.648 192.363 231.272 193.441 230.343C192.367 239.011 190 247.469 186.419 255.435C188.15 255.435 188.727 254.256 190.307 252.926C189.092 255.889 187.203 258.526 184.789 260.629C185.906 260.397 186.943 259.878 187.799 259.123C187.799 261.633 179.246 284.341 171.221 301.93C172.416 301.949 173.588 301.597 174.576 300.924C175.564 300.25 176.319 299.287 176.739 298.166C174.837 306.079 171.56 313.595 167.058 320.373C170.564 319.436 173.708 317.469 176.086 314.727C173.762 323.261 170.568 331.535 166.556 339.417C162.769 331.363 159.785 324.563 158.355 320.573C159.839 322.458 161.998 323.691 164.374 324.011C160.802 317.821 157.942 311.247 155.847 304.414C157.933 306.739 160.835 308.168 163.948 308.404C154.744 291.166 145.389 265.472 139.821 246C143.007 248.76 144.837 250.366 148.775 250.492L139.546 230.092C141.675 233.038 144.525 235.388 147.822 236.917C138.066 221.26 135.106 213.13 129.89 195.315L134.63 197.824C132.612 193.637 131.234 189.171 130.542 184.576L135.232 186.257C122.416 167.438 121.739 145.959 117.099 120.24C117.814 121.715 118.872 122.997 120.184 123.979C116.173 115.295 113.841 105.93 113.312 96.3778C113.312 103.027 109.977 122.498 107.168 129.198C108.071 128.219 108.196 129.198 109.124 127.441C107.737 135.932 105.476 144.257 102.378 152.282C103.08 152.282 103.431 151.73 104.56 150.476C103.453 162.172 100.926 173.691 97.0357 184.776C98.8916 184.776 99.5436 183.17 101.174 181.339C99.9779 185.232 97.9786 188.831 95.3052 191.902C96.5399 191.531 97.6443 190.818 98.4903 189.845C98.4903 193.257 89.4115 224.346 80.9346 248.434C82.3438 248.335 83.6814 247.776 84.7417 246.842C85.8021 245.908 86.5264 244.651 86.8032 243.265C84.8629 253.846 81.3993 264.09 76.5206 273.677C80.4739 272.208 83.8444 269.496 86.1261 265.948C83.9303 276.348 80.9456 286.565 77.1977 296.51C74.3888 290.363 72.1818 285.219 70.978 281.756C72.8295 284.119 75.5284 285.667 78.5019 286.072C73.9746 278.378 70.3316 270.196 67.6424 261.683C70.2984 264.629 73.994 266.428 77.9501 266.701C66.3634 244.997 54.6011 212.678 47.6039 188.164C51.5915 191.651 53.7735 193.684 58.8646 193.834C55.0023 185.286 51.1234 176.73 47.2277 168.165C49.9143 171.882 53.5174 174.838 57.6858 176.747C45.3718 157.05 41.66 146.812 35.1143 124.43L41.1333 127.743C38.6147 122.47 36.8825 116.857 35.992 111.082L41.9108 113.164C25.7596 89.5277 24.932 62.5038 19.0884 30.1353C19.9699 32.0074 21.2854 33.6419 22.9256 34.9028C17.5836 24.6653 15.4017 11.9688 14.2731 0.250934C14.2731 8.58142 10.0598 33.0962 6.54865 41.527C7.67722 40.2975 7.85277 41.527 9.05659 39.2938C7.32007 49.9807 4.47922 60.4584 0.579704 70.5582C1.45749 70.5582 1.88383 69.8557 3.31337 68.3C1.94713 83.005 -1.20261 97.4891 -6.06638 111.433C-3.73399 111.433 -2.95652 109.426 -0.874916 107.117C-2.3745 112.018 -4.88657 116.548 -8.24831 120.416C-6.68844 119.987 -5.28603 119.115 -4.21049 117.907C-4.41113 122.222 -15.6468 161.34 -26.4059 191.626C-24.6366 191.5 -22.9569 190.799 -21.6217 189.631C-20.2864 188.462 -19.3686 186.89 -19.0074 185.153C-21.4423 198.452 -25.8018 211.326 -31.9485 223.368C-26.985 221.532 -22.7516 218.133 -19.8852 213.682C-26.0046 243.391 -36.9142 267.429 -49.5293 295.933C-43.7293 293.716 -38.4642 290.295 -34.0802 285.896C-36.1618 287.929 -37.4409 294.553 -38.6197 297.439C-40.2916 301.487 -42.0472 305.485 -43.8864 309.433C-47.4226 317.161 -51.2347 324.764 -55.0969 332.316C-62.6208 347.07 -69.1415 361.849 -77.1669 376.403C-74.7384 374.381 -72.1079 372.615 -69.317 371.133C-71.3238 377.579 -73.8397 383.855 -76.8409 389.902C-92.8918 390.479 -109.444 391.282 -127 392.411C-121.207 468.741 -117.445 515.813 -111.676 592.167L-14.0166 607.223C485.694 642.351 1766.16 627.873 1903.37 622.102C1980.21 618.79 2068.89 602.254 2090.23 553.375C2098.08 535.033 2094.9 515.085 2090.23 495.865ZM400.975 378.661C401.878 375.607 403.185 372.687 404.862 369.979C405.237 369.943 405.615 369.943 405.991 369.979C407.571 370.305 407.771 371.234 408.223 372.789C409.103 376.506 409.549 380.312 409.552 384.131C409.677 387.845 409.828 391.659 409.978 395.297C410.067 396.428 410.016 397.565 409.828 398.684C409.505 399.952 408.971 401.157 408.248 402.247C406.482 405.161 404.359 407.841 401.928 410.226C400.875 411.28 399.746 412.284 398.768 413.413C398.968 407.241 398.592 386.891 400.975 378.661ZM-25.3776 383.93V384.432C-25.6535 383.729 -25.9545 383.027 -26.2554 382.324L-25.0516 381.722C-25.1861 382.419 -25.2865 383.123 -25.3526 383.83L-25.3776 383.93ZM-16.349 385.486C-16.6497 385.236 -16.9345 384.968 -17.2017 384.683L-16.5496 384.307C-16.5496 384.457 -16.2988 384.608 -16.1734 384.758C-16.2109 384.97 -16.2612 385.18 -16.3239 385.386L-16.349 385.486ZM261.181 410.778L261.031 410.477H261.482L261.181 410.778ZM272.994 415.797C272.651 416.145 272.222 416.396 271.75 416.524C271.279 416.652 270.782 416.652 270.31 416.525C269.801 415.897 269.472 415.144 269.357 414.344C269.242 413.544 269.346 412.728 269.658 411.983L273.42 412.51C273.42 412.911 273.42 413.338 273.42 413.714C273.522 414.413 273.371 415.125 272.994 415.722V415.797ZM349.637 428.569C349.637 428.895 349.486 429.246 349.386 429.597L346.878 422.321C345.824 423.767 344.979 425.355 344.37 427.038L345.424 416.7C345.343 418.305 344.863 419.864 344.026 421.236C343.189 422.608 342.023 423.748 340.633 424.554C342.269 422.357 343.477 419.871 344.195 417.227C341.393 420.281 338.226 422.978 334.765 425.256C335.781 424.134 336.559 422.817 337.05 421.385C337.542 419.953 337.737 418.436 337.624 416.926C336.338 419.768 334.343 422.231 331.83 424.077C332.786 421.831 333.081 419.359 332.683 416.951L329.799 421.969C329.799 420.589 329.799 419.209 329.799 417.829C328.921 418.983 328.018 420.138 327.116 421.267L326.639 417.227C326.338 418.555 325.883 419.843 325.285 421.066C325.285 421.292 324.984 421.568 324.733 421.618C324.515 421.614 324.308 421.524 324.156 421.367C319.516 417.879 319.993 411.757 320.194 406.312C320.394 405.029 320.897 403.811 321.66 402.76C322.423 401.708 323.425 400.853 324.582 400.265C327.052 398.556 329.353 396.615 331.454 394.469C333.559 392.096 335.794 389.842 338.151 387.719C340.204 386.179 342.348 384.763 344.571 383.479L344.897 383.253C343.685 386.707 342.041 389.995 340.006 393.039C339.195 393.988 338.688 395.159 338.552 396.401C338.696 397.61 339.203 398.748 340.006 399.663C342.497 403.292 344.504 407.232 345.975 411.381C348.157 416.851 350.816 422.471 349.637 428.493V428.569ZM375.394 431.605V431.831C375.317 429.092 375.569 426.354 376.146 423.676C374.328 425.929 372.903 428.474 371.933 431.203C371.548 430.504 371.347 429.718 371.347 428.92C371.347 428.122 371.548 427.336 371.933 426.637C372.692 425.218 373.137 423.651 373.237 422.045C370.764 424.429 368.883 427.359 367.744 430.601C367.322 428.145 366.158 425.877 364.409 424.102C365.073 426.266 364.949 428.596 364.058 430.676C363.315 428.467 361.765 426.621 359.719 425.507C355.656 423.35 355.656 419.009 354.854 414.643C354.302 411.657 353.374 408.771 352.546 405.886C351.539 403.559 351.476 400.931 352.371 398.559C353.165 397.349 354.241 396.351 355.506 395.648C363.029 390.504 370.779 384.884 375.268 376.729C376.04 375.318 376.703 373.85 377.25 372.338C379.068 372.951 380.688 374.043 381.939 375.499C382.818 376.815 383.455 378.276 383.82 379.815C386.477 388.933 388.364 398.258 389.463 407.692C390.416 415.973 392.147 423.048 390.115 431.529C389.965 432.107 389.639 432.834 389.062 432.784C388.485 432.734 388.259 432.031 388.184 431.429C387.858 428.867 387.758 426.281 387.883 423.701C385.75 425.997 384.246 428.806 383.519 431.856L384.498 423.174C382.708 425.682 381.414 428.51 380.685 431.504C380.01 427.661 378.951 423.895 377.525 420.263C377.984 424.148 377.24 428.081 375.394 431.529V431.605ZM537.383 422.346C538.135 416.901 540.568 410.904 545.609 409.298C548.297 408.701 551.093 408.796 553.734 409.574C565.121 411.883 570.688 414.191 579.993 416.525C581.48 421.6 584.173 426.241 587.843 430.049C590.075 432.558 592.332 435.243 594.664 437.727C595.477 438.441 596.069 439.372 596.37 440.412C596.491 441.042 596.491 441.689 596.37 442.319C595.316 447.663 591.354 451.402 588.846 456.019C586.338 460.636 581.021 463.973 578.463 468.841C579.639 466.602 580.444 464.187 580.845 461.69C578.705 464.025 576.775 466.544 575.077 469.217C575.554 466.583 576.005 463.948 576.482 461.313C574.17 463.542 572.291 466.179 570.939 469.092C571.095 465.488 571.753 461.924 572.895 458.503C570.502 460.317 568.519 462.618 567.077 465.253L568.732 458.277C566.155 460.717 564.009 463.576 562.387 466.733C563.777 464.182 564.469 461.308 564.393 458.403C563.129 462.011 560.524 464.995 557.12 466.733C559.704 464.156 561.452 460.859 562.136 457.274C559.749 461.268 556.207 464.443 551.979 466.382L557.471 456.119C554.635 458.296 551.999 460.723 549.596 463.371C550.702 461.136 551.682 458.841 552.531 456.496L546.436 464.4C546.406 461.674 546.787 458.958 547.565 456.345C546.29 458.925 544.497 461.215 542.298 463.07C541.957 461.746 541.897 460.366 542.121 459.017C542.346 457.669 542.85 456.383 543.602 455.241C541.522 456.823 539.987 459.017 539.213 461.514C537.608 455.266 537.884 448.492 537.433 442.093C536.739 435.53 536.722 428.913 537.383 422.346ZM512.93 434.892C514.284 431.831 515.714 428.794 517.219 425.783C517.77 424.704 522.234 417.729 521.984 416.951C522.762 418.423 523.433 419.949 523.99 421.518C528.007 432.57 529.987 444.26 529.834 456.019C529.844 457.145 529.631 458.263 529.207 459.306C528.934 459.854 528.535 460.329 528.042 460.691C527.549 461.054 526.977 461.293 526.373 461.389C527.366 459.009 527.603 456.38 527.05 453.861C525.961 456.475 524.528 458.931 522.786 461.163C523.053 457.815 522.935 454.447 522.435 451.126C521.934 454.46 520.499 457.583 518.297 460.134C518.426 456.932 518.974 453.76 519.927 450.7C517.635 453.091 515.919 455.974 514.911 459.13C515.237 456.621 515.588 454.112 515.914 451.427C513.774 453.431 512.512 456.2 512.403 459.13C511.221 457.2 510.444 455.048 510.121 452.807C509.416 454.81 509.143 456.939 509.318 459.055C504.227 451.703 509.92 441.692 512.93 434.791V434.892ZM617.311 448.918C616.659 453.901 615.585 458.82 614.101 463.622C613.374 465.93 613.524 467.31 611.367 468.64L611.668 467.862C610.699 468.411 609.761 469.015 608.859 469.669C607.899 469.974 606.961 470.343 606.05 470.773C606.461 469.311 607.114 467.929 607.981 466.683C605.341 468.245 603.16 470.479 601.661 473.157C602.163 470.268 602.087 467.309 601.436 464.45C601.079 466.455 600.132 468.307 598.715 469.769C597.298 471.231 595.477 472.236 593.485 472.655C594.388 470.698 596.896 469.769 597.398 467.637C594.659 469.321 591.603 470.422 588.419 470.873C589.612 469.009 591.133 467.377 592.909 466.056C590.538 466.937 588.281 468.099 586.187 469.518C589.548 465.725 592.616 461.682 595.366 457.424C598.063 453.725 601.186 450.356 604.671 447.388C605.387 446.889 605.992 446.249 606.449 445.507C606.907 444.764 607.206 443.935 607.329 443.072C607.258 442.192 607.002 441.337 606.577 440.563C605.574 438.405 604.546 436.197 603.593 433.938C606.241 436.121 609.068 438.076 612.044 439.785C614.212 440.703 615.987 442.355 617.06 444.452C617.5 445.899 617.587 447.431 617.311 448.918ZM1602.31 347.698C1602.16 347.246 1602.03 346.769 1601.91 346.318L1602.81 345.74L1603.11 345.991L1602.31 347.698ZM1690.34 295.431C1690.14 294.478 1689.96 293.524 1689.79 292.571L1690.14 292.345C1690.39 292.801 1690.71 293.222 1691.07 293.6L1690.34 295.431ZM1809.52 284.717C1809.17 283.939 1808.87 283.161 1808.51 282.384C1809.7 281.716 1810.77 280.869 1811.7 279.874C1811.1 281.355 1810.37 282.961 1809.49 284.767L1809.52 284.717Z" fill="url(#paint0_linear_101_857)"/>
<defs>
<linearGradient id="paint0_linear_101_857" x1="983.949" y1="629.906" x2="983.949" y2="0.0753069" gradientUnits="userSpaceOnUse">
<stop offset="0.05" stop-color="#063347"/>
<stop offset="0.39" stop-color="#0B414E"/>
<stop offset="0.99" stop-color="#196461"/>
</linearGradient>
</defs>
</svg>
