<svg width="1920" height="361" viewBox="0 0 1920 361" fill="none" xmlns="http://www.w3.org/2000/svg">
<path d="M-184.519 159.585C-149.093 129.985 -108.614 104.835 -63.7714 97.4561C-18.9291 90.0775 26.9181 101.016 71.6169 110.204C171.436 130.76 273.695 142.129 375.466 136.904C470.203 132.023 550.586 99.15 641.19 74.3155C651.812 71.4444 662.663 68.5734 673.601 69.406C691.429 70.9564 706.788 82.4692 721.889 92.3743C800.32 144.541 893.65 165.356 984.713 185.224C1019.77 192.889 1055.59 200.584 1091.16 196.22C1119.73 192.717 1146.86 181.606 1173.36 170.036C1239.58 141.139 1304.28 108.864 1367.19 73.3393C1406.12 51.3472 1468.1 8.94188 1511.37 1.01781C1531.23 -2.62841 1551.1 5.55404 1569.93 13.0762C1836.92 119.678 2136.92 120.281 2396.73 244.855C2424.69 258.263 2453.75 274.772 2467.81 303.281C2429.54 319.072 2387.8 323.034 2346.66 325.388C2058.2 341.695 1769.11 284.246 1480.99 303.482C1313.77 314.65 1148.67 351.543 981.268 359.266C656.147 374.253 331.915 278.877 7.56868 306.87" fill="url(#paint0_linear_101_295)"/>
<defs>
<linearGradient id="paint0_linear_101_295" x1="1141.6" y1="360.874" x2="1141.6" y2="0.127782" gradientUnits="userSpaceOnUse">
<stop stop-color="#FFFFF3"/>
<stop offset="0.26" stop-color="#FBFFF2"/>
<stop offset="0.54" stop-color="#EDFEF0"/>
<stop offset="0.83" stop-color="#D8FEED"/>
<stop offset="1" stop-color="#C8FDEA"/>
</linearGradient>
</defs>
</svg>
