<svg width="1775" height="609" viewBox="0 0 1775 609" fill="none" xmlns="http://www.w3.org/2000/svg">
<path d="M1234.33 335.783C1211.37 336.012 1188.4 336.615 1165.43 337.592C1126.62 339.228 1087.6 341.898 1049.05 337.017C1021.09 333.486 993.756 326.021 966.512 318.585C918.426 305.465 862.933 277.185 848.808 279.683C834.684 282.18 743.621 325.275 720.482 325.275C697.343 325.275 589.745 282.209 547.228 271.127C435.323 241.555 322.212 214.998 216.623 165.559C171.034 144.198 125.703 120.34 76.5262 111.009C47.3298 105.525 16.4397 105.037 -9.9145 90.9118C-26.7663 81.8393 -40.5463 67.7712 -55.331 55.3683C-83.2056 31.9391 -115.387 14.1794 -150.068 3.08659C-155.317 0.932712 -161.053 0.2479 -166.662 1.10557C-173.15 2.65593 -178.145 7.90997 -182.71 12.9343C-301.935 143.165 -420.357 280.4 -510.271 434.748C-514.98 442.786 -519.659 452.921 -515.209 461.104C-511.736 467.449 -504.185 469.717 -497.381 471.353C-350.194 506.15 -195.686 487.804 -47.1779 515.826C29.8752 530.382 104.287 557.197 180.737 574.883C301.312 602.79 425.705 607.613 549.237 608.388C887.648 610.488 1225.6 583.09 1559.25 526.506C1592.58 520.764 1627.09 509.28 1660.62 507.012C1689.33 505.059 1714.65 512.754 1742.41 497.394C1765.64 484.589 1782.14 454.328 1771.29 429.321C1766.38 418.038 1756.94 409.683 1746.72 403.109C1718.53 384.763 1685.08 377.643 1652.32 371.527C1514.46 346.234 1374.49 334.264 1234.33 335.783V335.783Z" fill="url(#paint0_linear_101_296)"/>
<defs>
<linearGradient id="paint0_linear_101_296" x1="591.352" y1="664.431" x2="682.198" y2="149.11" gradientUnits="userSpaceOnUse">
<stop offset="0.37" stop-color="#F4FFF1"/>
<stop offset="0.51" stop-color="#EBFFEE"/>
<stop offset="0.74" stop-color="#D4FFE5"/>
<stop offset="0.89" stop-color="#C2FFDE"/>
</linearGradient>
</defs>
</svg>
